# xmcd
#
# Track frame offsets: 
#        150
#        15685
#        34487
#        49130
#        63997
#        79340
#        97575
#        110862
#        128425
#        142487
#        160650
#        178455
#
# Disc length: 2596 seconds
#
# Revision: 2
# Processed by: cddbd v1.4PL0 Copyright (c) Steve Scherf et al.
# Submitted via: ExactAudioCopy v0.90b3
#
DISCID=a90a220c
DTITLE=Earl Thomas Conley - The Very Best Of Earl Thomas Conley - Disc
DTITLE=1
DYEAR=1900
DGENRE=Country
TTITLE0=Your Love's On The Line
TTITLE1=Somewhere Between Right And Wrong
TTITLE2=Fire And Smoke
TTITLE3=Honor Bound
TTITLE4=Tell Me Why
TTITLE5=What She Is (Is A Woman In Love)
TTITLE6=Chance Of Lovin' You
TTITLE7=Too Many Times (Duet With Anita Pointer)
TTITLE8=Heavenly Bodies
TTITLE9=I Can't Win For Losing You
TTITLE10=Angel In Disguise
TTITLE11=Once In A Blue Moon
EXTD=1989/HD 1076
EXTT0=
EXTT1=
EXTT2=
EXTT3=
EXTT4=
EXTT5=
EXTT6=
EXTT7=
EXTT8=
EXTT9=
EXTT10=
EXTT11=
PLAYORDER=
